<svg xmlns="http://www.w3.org/2000/svg" xmlns:xlink="http://www.w3.org/1999/xlink" width="500" zoomAndPan="magnify" viewBox="0 0 375 374.999991" height="500" preserveAspectRatio="xMidYMid meet" version="1.0"><defs><g/><clipPath id="6fd4aea47f"><path d="M 48.867188 229.089844 L 324.867188 229.089844 L 324.867188 334 L 48.867188 334 Z M 48.867188 229.089844 " clip-rule="nonzero"/></clipPath></defs><g clip-path="url(#6fd4aea47f)"><path fill="#000000" d="M 50.886719 193.246094 C 52.085938 193.246094 53.058594 194.21875 53.058594 195.417969 C 53.058594 269.554688 113.066406 329.652344 187.09375 329.652344 C 261.117188 329.652344 321.125 269.554688 321.125 195.417969 C 321.125 194.21875 322.097656 193.246094 323.296875 193.246094 C 324.496094 193.246094 325.46875 194.21875 325.46875 195.417969 C 325.46875 271.953125 263.515625 334 187.09375 334 C 110.671875 334 48.71875 271.953125 48.71875 195.417969 C 48.71875 194.21875 49.691406 193.246094 50.886719 193.246094 Z M 50.886719 193.246094 " fill-opacity="1" fill-rule="evenodd"/></g><g fill="#000000" fill-opacity="1"><g transform="translate(60.490279, 177.879021)"><g><path d="M 4.21875 -22.734375 L 4.296875 -23.140625 L 4.546875 -23.09375 L 3.46875 -17.609375 L 3.234375 -17.65625 L 3.3125 -18.046875 C 3.363281 -18.328125 3.296875 -18.585938 3.109375 -18.828125 C 2.929688 -19.078125 2.707031 -19.210938 2.4375 -19.234375 L -10.46875 -20.59375 L 0.25 -13 C 1.1875 -12.3125 1.988281 -11.859375 2.65625 -11.640625 L 2.609375 -11.375 L -12.640625 -7.6875 L -0.53125 -4.15625 C -0.269531 -4.070312 -0.0078125 -4.109375 0.25 -4.265625 C 0.507812 -4.429688 0.671875 -4.65625 0.734375 -4.9375 L 0.796875 -5.328125 L 1.03125 -5.28125 L 0.078125 -0.390625 L -0.171875 -0.4375 L -0.09375 -0.828125 C 0 -1.296875 -0.0625 -1.726562 -0.28125 -2.125 C -0.5 -2.53125 -0.847656 -2.816406 -1.328125 -2.984375 L -17.109375 -8.046875 L -17.0625 -8.3125 L -0.484375 -12.34375 L -14.328125 -22.21875 L -14.28125 -22.453125 L 2.25 -21.203125 C 2.757812 -21.171875 3.191406 -21.300781 3.546875 -21.59375 C 3.898438 -21.894531 4.125 -22.273438 4.21875 -22.734375 Z M 4.21875 -22.734375 "/></g></g></g><g fill="#000000" fill-opacity="1"><g transform="translate(65.339027, 155.341617)"><g><path d="M 0.34375 -1.859375 C 0.488281 -2.285156 0.457031 -2.695312 0.25 -3.09375 C 0.0507812 -3.5 -0.257812 -3.773438 -0.6875 -3.921875 L -14.234375 -8.34375 C -14.660156 -8.476562 -15.066406 -8.441406 -15.453125 -8.234375 C -15.847656 -8.023438 -16.117188 -7.707031 -16.265625 -7.28125 L -16.359375 -6.96875 L -16.609375 -7.046875 L -14.875 -12.390625 L -14.625 -12.3125 L -14.71875 -11.984375 C -14.851562 -11.566406 -14.820312 -11.160156 -14.625 -10.765625 C -14.4375 -10.378906 -14.132812 -10.101562 -13.71875 -9.9375 L -0.171875 -5.515625 C 0.253906 -5.378906 0.671875 -5.414062 1.078125 -5.625 C 1.484375 -5.832031 1.753906 -6.144531 1.890625 -6.5625 L 1.984375 -6.890625 L 2.21875 -6.8125 L 0.484375 -1.46875 L 0.25 -1.546875 Z M 0.34375 -1.859375 "/></g></g></g><g fill="#000000" fill-opacity="1"><g transform="translate(67.504653, 147.667517)"><g><path d="M 4.703125 -9.640625 C 3.578125 -7.171875 1.890625 -5.503906 -0.359375 -4.640625 C -2.617188 -3.785156 -5.023438 -3.929688 -7.578125 -5.078125 C -10.140625 -6.222656 -11.851562 -7.921875 -12.71875 -10.171875 C -13.59375 -12.429688 -13.457031 -14.835938 -12.3125 -17.390625 C -11.375 -19.492188 -10.007812 -21.113281 -8.21875 -22.25 L -4.71875 -21.25 L -4.8125 -21.03125 C -6.300781 -21.289062 -7.640625 -21.054688 -8.828125 -20.328125 C -10.023438 -19.609375 -10.945312 -18.523438 -11.59375 -17.078125 C -12.507812 -15.035156 -12.53125 -13.082031 -11.65625 -11.21875 C -10.78125 -9.363281 -9.171875 -7.910156 -6.828125 -6.859375 C -4.484375 -5.816406 -2.320312 -5.578125 -0.34375 -6.140625 C 1.625 -6.710938 3.070312 -7.984375 4 -9.953125 C 4.78125 -11.703125 4.953125 -13.375 4.515625 -14.96875 C 4.054688 -16.695312 2.722656 -18.210938 0.515625 -19.515625 L 0.59375 -19.703125 L 4.15625 -17.796875 C 5.84375 -15.328125 6.023438 -12.609375 4.703125 -9.640625 Z M 4.703125 -9.640625 "/></g></g></g><g fill="#000000" fill-opacity="1"><g transform="translate(74.942723, 130.729198)"><g><path d="M 7.390625 -11.953125 C 7.628906 -12.335938 7.695312 -12.75 7.59375 -13.1875 C 7.5 -13.625 7.28125 -13.960938 6.9375 -14.203125 L 1.328125 -17.796875 L -4.359375 -8.953125 L 1.25 -5.359375 C 1.613281 -5.117188 2.015625 -5.050781 2.453125 -5.15625 C 2.898438 -5.269531 3.242188 -5.515625 3.484375 -5.890625 L 3.671875 -6.171875 L 3.875 -6.03125 L 0.84375 -1.296875 L 0.640625 -1.4375 L 0.8125 -1.71875 C 1.050781 -2.09375 1.125 -2.492188 1.03125 -2.921875 C 0.9375 -3.359375 0.710938 -3.703125 0.359375 -3.953125 L -11.65625 -11.671875 C -12.039062 -11.898438 -12.445312 -11.960938 -12.875 -11.859375 C -13.3125 -11.765625 -13.648438 -11.53125 -13.890625 -11.15625 L -14.0625 -10.875 L -14.28125 -11.015625 L -11.25 -15.75 L -11.03125 -15.609375 L -11.21875 -15.328125 C -11.457031 -14.953125 -11.53125 -14.546875 -11.4375 -14.109375 C -11.351562 -13.679688 -11.128906 -13.335938 -10.765625 -13.078125 L -5 -9.359375 L 0.6875 -18.203125 L -5.078125 -21.921875 C -5.617188 -22.242188 -6.160156 -22.265625 -6.703125 -21.984375 C -6.953125 -21.835938 -7.15625 -21.640625 -7.3125 -21.390625 L -7.5 -21.125 L -7.71875 -21.265625 L -4.671875 -26 L -4.453125 -25.859375 L -4.625 -25.578125 C -4.875 -25.203125 -4.953125 -24.789062 -4.859375 -24.34375 C -4.773438 -23.90625 -4.546875 -23.5625 -4.171875 -23.3125 L 7.828125 -15.609375 C 8.203125 -15.378906 8.609375 -15.316406 9.046875 -15.421875 C 9.484375 -15.523438 9.828125 -15.765625 10.078125 -16.140625 L 10.25 -16.421875 L 10.453125 -16.28125 L 7.40625 -11.546875 L 7.203125 -11.6875 Z M 7.390625 -11.953125 "/></g></g></g><g fill="#000000" fill-opacity="1"><g transform="translate(85.703197, 114.009485)"><g><path d="M 11.890625 -14.03125 L 12.03125 -14.203125 L 12.21875 -14.03125 L 8.421875 -9.671875 L 8.234375 -9.84375 L 8.390625 -10.015625 C 8.628906 -10.285156 8.71875 -10.5625 8.65625 -10.84375 C 8.601562 -11.132812 8.5 -11.347656 8.34375 -11.484375 C 8.195312 -11.617188 8.019531 -11.726562 7.8125 -11.8125 L 3.4375 -13.4375 L -1.125 -8.203125 L 1.0625 -4.03125 C 1.15625 -3.84375 1.273438 -3.679688 1.421875 -3.546875 C 1.578125 -3.421875 1.800781 -3.347656 2.09375 -3.328125 C 2.394531 -3.316406 2.664062 -3.445312 2.90625 -3.71875 L 3.0625 -3.890625 L 3.25 -3.71875 L -0.140625 0.171875 L -0.328125 0 L -0.1875 -0.171875 C 0.09375 -0.492188 0.265625 -0.894531 0.328125 -1.375 C 0.390625 -1.863281 0.304688 -2.382812 0.078125 -2.9375 L -6.515625 -16.40625 C -7.160156 -17.789062 -7.625 -18.601562 -7.90625 -18.84375 L -7.75 -19.015625 L 9.203125 -13.40625 C 9.753906 -13.226562 10.269531 -13.207031 10.75 -13.34375 C 11.226562 -13.476562 11.609375 -13.707031 11.890625 -14.03125 Z M -1.515625 -8.953125 L 2.640625 -13.71875 L -5.609375 -16.8125 Z M -1.515625 -8.953125 "/></g></g></g><g fill="#000000" fill-opacity="1"><g transform="translate(97.195673, 100.901783)"><g><path d="M 1.21875 -1.4375 C 1.550781 -1.738281 1.734375 -2.113281 1.765625 -2.5625 C 1.796875 -3.007812 1.664062 -3.398438 1.375 -3.734375 L -8.234375 -14.453125 C -8.503906 -14.753906 -8.851562 -14.898438 -9.28125 -14.890625 C -9.71875 -14.890625 -10.101562 -14.738281 -10.4375 -14.4375 L -10.671875 -14.234375 L -10.84375 -14.421875 L -5.25 -19.4375 C -4.851562 -19.789062 -4.457031 -20.210938 -4.0625 -20.703125 C -3.675781 -21.203125 -3.414062 -21.578125 -3.28125 -21.828125 L -1.109375 -19.421875 L -1.296875 -19.25 L -1.609375 -19.59375 C -1.878906 -19.894531 -2.21875 -20.0625 -2.625 -20.09375 C -3.039062 -20.125 -3.398438 -20.007812 -3.703125 -19.75 L -7.609375 -16.265625 L -2.3125 -10.359375 L 0.921875 -13.25 C 1.171875 -13.488281 1.300781 -13.78125 1.3125 -14.125 C 1.332031 -14.46875 1.222656 -14.769531 0.984375 -15.03125 L 0.75 -15.296875 L 0.9375 -15.46875 L 3.640625 -12.4375 L 3.453125 -12.265625 L 3.203125 -12.5625 C 2.972656 -12.820312 2.691406 -12.960938 2.359375 -12.984375 C 2.023438 -13.003906 1.726562 -12.90625 1.46875 -12.6875 L -1.796875 -9.78125 L 3.328125 -4.0625 L 6.0625 -6.5 C 7.007812 -7.351562 7.539062 -8.207031 7.65625 -9.0625 C 7.78125 -9.925781 7.632812 -10.925781 7.21875 -12.0625 L 7.40625 -12.234375 L 9.09375 -8.140625 L 1.15625 -1.03125 L 0.984375 -1.21875 Z M 1.21875 -1.4375 "/></g></g></g><g fill="#000000" fill-opacity="1"><g transform="translate(107.64845, 91.49081)"><g><path d="M 1.390625 -1.296875 C 1.742188 -1.554688 1.957031 -1.90625 2.03125 -2.34375 C 2.101562 -2.789062 2.015625 -3.203125 1.765625 -3.578125 L -6.53125 -15.140625 C -6.800781 -15.492188 -7.15625 -15.707031 -7.59375 -15.78125 C -8.039062 -15.851562 -8.441406 -15.757812 -8.796875 -15.5 L -9.078125 -15.3125 L -9.21875 -15.53125 L -4.640625 -18.796875 L -4.5 -18.578125 L -4.78125 -18.390625 C -5.28125 -18.023438 -5.503906 -17.53125 -5.453125 -16.90625 C -5.429688 -16.613281 -5.335938 -16.347656 -5.171875 -16.109375 L 3.75 -3.65625 L 6.734375 -5.796875 C 7.765625 -6.535156 8.382812 -7.328125 8.59375 -8.171875 C 8.8125 -9.023438 8.78125 -10.035156 8.5 -11.203125 L 8.703125 -11.34375 L 9.921875 -7.109375 L 1.25 -0.90625 L 1.109375 -1.109375 Z M 1.390625 -1.296875 "/></g></g></g><g fill="#000000" fill-opacity="1"><g transform="translate(119.012761, 83.510611)"><g/></g></g><g fill="#000000" fill-opacity="1"><g transform="translate(123.954677, 80.313825)"><g><path d="M 1.5625 -1.0625 C 1.96875 -1.257812 2.238281 -1.570312 2.375 -2 C 2.507812 -2.4375 2.484375 -2.851562 2.296875 -3.25 L -4.109375 -15.96875 C -4.316406 -16.363281 -4.628906 -16.628906 -5.046875 -16.765625 C -5.472656 -16.898438 -5.890625 -16.867188 -6.296875 -16.671875 L -6.59375 -16.53125 L -6.71875 -16.765625 L -1.6875 -19.28125 L -1.5625 -19.046875 L -1.875 -18.90625 C -2.414062 -18.625 -2.710938 -18.171875 -2.765625 -17.546875 C -2.785156 -17.253906 -2.734375 -16.976562 -2.609375 -16.71875 L 4.28125 -3.046875 L 7.546875 -4.703125 C 8.679688 -5.273438 9.421875 -5.957031 9.765625 -6.75 C 10.109375 -7.550781 10.226562 -8.554688 10.125 -9.765625 L 10.34375 -9.875 L 10.90625 -5.484375 L 1.375 -0.703125 L 1.265625 -0.921875 Z M 1.5625 -1.0625 "/></g></g></g><g fill="#000000" fill-opacity="1"><g transform="translate(136.149967, 74.114036)"><g><path d="M 1.65625 -0.890625 C 2.082031 -1.046875 2.390625 -1.328125 2.578125 -1.734375 C 2.765625 -2.140625 2.785156 -2.554688 2.640625 -2.984375 L -2.390625 -16.46875 C -2.535156 -16.851562 -2.804688 -17.117188 -3.203125 -17.265625 C -3.609375 -17.410156 -4.023438 -17.40625 -4.453125 -17.25 L -4.734375 -17.140625 L -4.84375 -17.390625 L 2.1875 -20.015625 C 2.6875 -20.203125 3.207031 -20.453125 3.75 -20.765625 C 4.300781 -21.085938 4.6875 -21.335938 4.90625 -21.515625 L 6.03125 -18.484375 L 5.796875 -18.390625 L 5.640625 -18.84375 C 5.492188 -19.21875 5.234375 -19.492188 4.859375 -19.671875 C 4.492188 -19.847656 4.125 -19.867188 3.75 -19.734375 L -1.15625 -17.90625 L 1.625 -10.484375 L 5.6875 -12.015625 C 6 -12.128906 6.222656 -12.34375 6.359375 -12.65625 C 6.503906 -12.976562 6.515625 -13.300781 6.390625 -13.625 L 6.265625 -13.96875 L 6.5 -14.0625 L 7.921875 -10.25 L 7.6875 -10.15625 L 7.546875 -10.53125 C 7.429688 -10.851562 7.222656 -11.082031 6.921875 -11.21875 C 6.617188 -11.363281 6.304688 -11.390625 5.984375 -11.296875 L 1.890625 -9.765625 L 4.578125 -2.5625 L 8.015625 -3.84375 C 9.203125 -4.289062 10.007812 -4.894531 10.4375 -5.65625 C 10.863281 -6.414062 11.097656 -7.394531 11.140625 -8.59375 L 11.375 -8.6875 L 11.4375 -4.265625 L 1.453125 -0.546875 L 1.359375 -0.78125 Z M 1.65625 -0.890625 "/></g></g></g><g fill="#000000" fill-opacity="1"><g transform="translate(149.301643, 69.153786)"><g><path d="M 1.75 -0.703125 C 2.1875 -0.816406 2.519531 -1.066406 2.75 -1.453125 C 2.976562 -1.835938 3.046875 -2.242188 2.953125 -2.671875 L -0.578125 -16.625 C -0.671875 -17.019531 -0.910156 -17.3125 -1.296875 -17.5 C -1.679688 -17.695312 -2.09375 -17.738281 -2.53125 -17.625 L -2.828125 -17.546875 L -2.90625 -17.8125 L 4.375 -19.65625 C 4.894531 -19.78125 5.441406 -19.96875 6.015625 -20.21875 C 6.597656 -20.476562 7.003906 -20.6875 7.234375 -20.84375 L 8.03125 -17.703125 L 7.796875 -17.640625 L 7.671875 -18.09375 C 7.578125 -18.488281 7.351562 -18.796875 7 -19.015625 C 6.65625 -19.234375 6.289062 -19.300781 5.90625 -19.21875 L 0.828125 -17.9375 L 2.765625 -10.234375 L 6.96875 -11.296875 C 7.300781 -11.390625 7.550781 -11.585938 7.71875 -11.890625 C 7.894531 -12.191406 7.941406 -12.507812 7.859375 -12.84375 L 7.765625 -13.203125 L 8.015625 -13.265625 L 9.015625 -9.328125 L 8.765625 -9.265625 L 8.671875 -9.640625 C 8.585938 -9.972656 8.398438 -10.226562 8.109375 -10.40625 C 7.828125 -10.582031 7.519531 -10.632812 7.1875 -10.5625 L 2.953125 -9.484375 L 4.84375 -2.03125 L 8.40625 -2.9375 C 9.632812 -3.25 10.5 -3.757812 11 -4.46875 C 11.507812 -5.175781 11.847656 -6.125 12.015625 -7.3125 L 12.25 -7.375 L 11.828125 -2.984375 L 1.5 -0.375 L 1.4375 -0.625 Z M 1.75 -0.703125 "/></g></g></g><g fill="#000000" fill-opacity="1"><g transform="translate(162.996633, 65.72741)"><g><path d="M 1.390625 -1.265625 C 1.304688 -1.492188 1.210938 -1.945312 1.109375 -2.625 C 1.015625 -3.3125 1.039062 -4.054688 1.1875 -4.859375 L 1.421875 -4.890625 C 1.421875 -4.691406 1.4375 -4.5 1.46875 -4.3125 C 1.625 -3.269531 2.0625 -2.453125 2.78125 -1.859375 C 3.507812 -1.273438 4.390625 -1.0625 5.421875 -1.21875 C 6.492188 -1.375 7.328125 -1.820312 7.921875 -2.5625 C 8.515625 -3.300781 8.738281 -4.15625 8.59375 -5.125 C 8.445312 -6.101562 8 -6.851562 7.25 -7.375 L 1.703125 -11.1875 C 0.660156 -11.894531 0.0507812 -12.847656 -0.125 -14.046875 C -0.300781 -15.253906 -0.0507812 -16.34375 0.625 -17.3125 C 1.300781 -18.289062 2.332031 -18.878906 3.71875 -19.078125 C 4.351562 -19.171875 5.085938 -19.195312 5.921875 -19.15625 L 6.90625 -19.296875 L 7.375 -16.171875 L 7.15625 -16.140625 C 7.03125 -16.929688 6.65625 -17.519531 6.03125 -17.90625 C 5.414062 -18.300781 4.675781 -18.4375 3.8125 -18.3125 C 2.945312 -18.1875 2.265625 -17.789062 1.765625 -17.125 C 1.265625 -16.46875 1.078125 -15.707031 1.203125 -14.84375 C 1.335938 -13.976562 1.785156 -13.285156 2.546875 -12.765625 L 8.25 -8.875 C 9.207031 -8.21875 9.785156 -7.207031 9.984375 -5.84375 C 10.191406 -4.488281 9.925781 -3.3125 9.1875 -2.3125 C 8.445312 -1.320312 7.359375 -0.722656 5.921875 -0.515625 C 5.171875 -0.398438 4.359375 -0.394531 3.484375 -0.5 C 2.617188 -0.601562 1.921875 -0.859375 1.390625 -1.265625 Z M 1.390625 -1.265625 "/></g></g></g><g fill="#000000" fill-opacity="1"><g transform="translate(174.618628, 64.095484)"><g/></g></g><g fill="#000000" fill-opacity="1"><g transform="translate(180.460533, 63.455364)"><g><path d="M 13.5625 -13 C 13.550781 -12.238281 13.394531 -11.535156 13.09375 -10.890625 C 12.53125 -9.679688 11.535156 -8.835938 10.109375 -8.359375 C 9.609375 -8.191406 9.179688 -8.109375 8.828125 -8.109375 C 7.765625 -8.109375 6.847656 -8.300781 6.078125 -8.6875 L 6.078125 -8.953125 C 7.328125 -8.671875 8.484375 -8.804688 9.546875 -9.359375 C 10.484375 -9.835938 11.125 -10.625 11.46875 -11.71875 C 11.570312 -12.0625 11.625 -12.382812 11.625 -12.6875 C 11.632812 -13 11.640625 -13.191406 11.640625 -13.265625 C 11.609375 -14.460938 11.289062 -15.414062 10.6875 -16.125 C 10.09375 -16.832031 9.253906 -17.1875 8.171875 -17.1875 L 5.21875 -17.1875 L 5.1875 -1.859375 C 5.207031 -1.410156 5.375 -1.023438 5.6875 -0.703125 C 6.007812 -0.390625 6.390625 -0.234375 6.828125 -0.234375 L 7.171875 -0.234375 L 7.171875 0.015625 L 1.546875 0 L 1.546875 -0.25 L 1.875 -0.25 C 2.320312 -0.25 2.703125 -0.40625 3.015625 -0.71875 C 3.335938 -1.039062 3.503906 -1.425781 3.515625 -1.875 L 3.546875 -16.234375 C 3.492188 -16.660156 3.3125 -17.015625 3 -17.296875 C 2.695312 -17.578125 2.332031 -17.71875 1.90625 -17.71875 L 1.59375 -17.71875 L 1.578125 -17.984375 L 8.28125 -17.96875 C 9.925781 -17.96875 11.21875 -17.519531 12.15625 -16.625 C 13.09375 -15.738281 13.5625 -14.53125 13.5625 -13 Z M 13.5625 -13 "/></g></g></g><g fill="#000000" fill-opacity="1"><g transform="translate(194.382735, 63.219627)"><g><path d="M 13.953125 1.640625 C 14.390625 1.703125 14.785156 1.597656 15.140625 1.328125 C 15.503906 1.054688 15.722656 0.707031 15.796875 0.28125 L 16.6875 -6.3125 L 6.28125 -7.71875 L 5.390625 -1.125 C 5.328125 -0.6875 5.4375 -0.296875 5.71875 0.046875 C 6 0.398438 6.359375 0.609375 6.796875 0.671875 L 7.140625 0.71875 L 7.109375 0.96875 L 1.53125 0.203125 L 1.5625 -0.046875 L 1.890625 0 C 2.335938 0.0625 2.738281 -0.0351562 3.09375 -0.296875 C 3.445312 -0.566406 3.660156 -0.921875 3.734375 -1.359375 L 5.65625 -15.515625 C 5.695312 -15.953125 5.582031 -16.34375 5.3125 -16.6875 C 5.039062 -17.039062 4.679688 -17.25 4.234375 -17.3125 L 3.90625 -17.359375 L 3.953125 -17.625 L 9.53125 -16.859375 L 9.484375 -16.59375 L 9.140625 -16.640625 C 8.703125 -16.703125 8.304688 -16.597656 7.953125 -16.328125 C 7.597656 -16.066406 7.382812 -15.71875 7.3125 -15.28125 L 6.390625 -8.484375 L 16.796875 -7.078125 L 17.71875 -13.875 C 17.789062 -14.488281 17.582031 -14.984375 17.09375 -15.359375 C 16.851562 -15.523438 16.585938 -15.628906 16.296875 -15.671875 L 15.96875 -15.71875 L 16.015625 -15.984375 L 21.59375 -15.234375 L 21.546875 -14.96875 L 21.21875 -15 C 20.769531 -15.0625 20.367188 -14.957031 20.015625 -14.6875 C 19.660156 -14.414062 19.445312 -14.066406 19.375 -13.640625 L 17.453125 0.5 C 17.410156 0.945312 17.523438 1.34375 17.796875 1.6875 C 18.066406 2.039062 18.425781 2.25 18.875 2.3125 L 19.203125 2.34375 L 19.171875 2.59375 L 13.59375 1.84375 L 13.625 1.59375 Z M 13.953125 1.640625 "/></g></g></g><g fill="#000000" fill-opacity="1"><g transform="translate(214.029307, 65.762853)"><g><path d="M 8.171875 -13.984375 C 10.429688 -15.109375 12.957031 -15.25 15.75 -14.40625 C 18.539062 -13.5625 20.5625 -12.046875 21.8125 -9.859375 C 23.070312 -7.679688 23.296875 -5.253906 22.484375 -2.578125 C 21.679688 0.0859375 20.148438 1.976562 17.890625 3.09375 C 15.640625 4.207031 13.117188 4.34375 10.328125 3.5 C 7.535156 2.65625 5.507812 1.144531 4.25 -1.03125 C 3 -3.207031 2.773438 -5.628906 3.578125 -8.296875 C 4.390625 -10.972656 5.921875 -12.867188 8.171875 -13.984375 Z M 5.75 -1.15625 C 6.6875 0.769531 8.285156 2.070312 10.546875 2.75 C 12.804688 3.4375 14.859375 3.234375 16.703125 2.140625 C 18.546875 1.054688 19.835938 -0.710938 20.578125 -3.171875 C 21.328125 -5.628906 21.234375 -7.820312 20.296875 -9.75 C 19.359375 -11.675781 17.757812 -12.976562 15.5 -13.65625 C 13.238281 -14.34375 11.1875 -14.140625 9.34375 -13.046875 C 7.507812 -11.960938 6.21875 -10.191406 5.46875 -7.734375 C 4.726562 -5.273438 4.820312 -3.082031 5.75 -1.15625 Z M 5.75 -1.15625 "/></g></g></g><g fill="#000000" fill-opacity="1"><g transform="translate(233.906973, 71.918722)"><g><path d="M 20.3125 -7.875 C 20.488281 -8.25 20.507812 -8.632812 20.375 -9.03125 C 20.238281 -9.425781 20 -9.710938 19.65625 -9.890625 L 15.21875 -11.953125 L 8.75 2.015625 C 8.582031 2.421875 8.578125 2.832031 8.734375 3.25 C 8.890625 3.664062 9.164062 3.960938 9.5625 4.140625 L 9.875 4.296875 L 9.765625 4.53125 L 4.671875 2.15625 L 4.78125 1.921875 L 5.078125 2.0625 C 5.484375 2.25 5.894531 2.269531 6.3125 2.125 C 6.726562 1.976562 7.03125 1.710938 7.21875 1.328125 L 13.703125 -12.65625 L 9.28125 -14.703125 C 8.894531 -14.847656 8.507812 -14.84375 8.125 -14.6875 C 7.738281 -14.539062 7.457031 -14.28125 7.28125 -13.90625 L 7.109375 -13.515625 L 6.875 -13.609375 L 8.234375 -16.53125 C 8.429688 -16.332031 8.789062 -16.050781 9.3125 -15.6875 C 9.832031 -15.332031 10.335938 -15.039062 10.828125 -14.8125 L 18.703125 -11.171875 C 19.460938 -10.816406 20.125 -10.582031 20.6875 -10.46875 C 21.25 -10.351562 21.597656 -10.289062 21.734375 -10.28125 L 20.375 -7.359375 L 20.140625 -7.484375 Z M 20.3125 -7.875 "/></g></g></g><g fill="#000000" fill-opacity="1"><g transform="translate(247.568324, 77.946503)"><g><path d="M 11.734375 -11.171875 C 14.210938 -11.628906 16.675781 -11.066406 19.125 -9.484375 C 21.570312 -7.898438 23.097656 -5.882812 23.703125 -3.4375 C 24.304688 -1 23.847656 1.390625 22.328125 3.734375 C 20.816406 6.078125 18.820312 7.472656 16.34375 7.921875 C 13.875 8.367188 11.414062 7.800781 8.96875 6.21875 C 6.519531 4.632812 4.988281 2.625 4.375 0.1875 C 3.769531 -2.25 4.222656 -4.640625 5.734375 -6.984375 C 7.253906 -9.328125 9.253906 -10.722656 11.734375 -11.171875 Z M 5.84375 0.46875 C 6.207031 2.582031 7.378906 4.28125 9.359375 5.5625 C 11.347656 6.851562 13.378906 7.226562 15.453125 6.6875 C 17.523438 6.15625 19.253906 4.8125 20.640625 2.65625 C 22.035156 0.5 22.550781 -1.628906 22.1875 -3.734375 C 21.832031 -5.847656 20.660156 -7.546875 18.671875 -8.828125 C 16.691406 -10.117188 14.664062 -10.492188 12.59375 -9.953125 C 10.519531 -9.421875 8.785156 -8.078125 7.390625 -5.921875 C 6.003906 -3.765625 5.488281 -1.632812 5.84375 0.46875 Z M 5.84375 0.46875 "/></g></g></g><g fill="#000000" fill-opacity="1"><g transform="translate(264.979153, 89.162404)"><g><path d="M 7.78125 7.453125 C 5.75 5.617188 4.671875 3.492188 4.546875 1.078125 C 4.421875 -1.328125 5.289062 -3.566406 7.15625 -5.640625 C 9.019531 -7.722656 11.160156 -8.835938 13.578125 -8.984375 C 15.992188 -9.128906 18.222656 -8.289062 20.265625 -6.46875 C 22.023438 -4.882812 23.179688 -3.054688 23.734375 -0.984375 L 21.6875 2.046875 L 21.515625 1.890625 C 22.222656 0.546875 22.421875 -0.796875 22.109375 -2.140625 C 21.796875 -3.492188 21.007812 -4.738281 19.75 -5.875 C 18.125 -7.320312 16.285156 -7.910156 14.234375 -7.640625 C 12.179688 -7.378906 10.296875 -6.289062 8.578125 -4.375 C 6.867188 -2.46875 5.988281 -0.484375 5.9375 1.578125 C 5.894531 3.648438 6.675781 5.421875 8.28125 6.890625 C 9.101562 7.640625 10.019531 8.195312 11.03125 8.5625 C 12.039062 8.9375 13.0625 9.113281 14.09375 9.09375 L 17.125 5.71875 C 17.375 5.4375 17.476562 5.144531 17.4375 4.84375 C 17.40625 4.550781 17.238281 4.269531 16.9375 4 L 16.625 3.71875 L 16.796875 3.515625 L 20.546875 6.875 L 20.375 7.078125 L 20.09375 6.828125 C 19.769531 6.535156 19.457031 6.382812 19.15625 6.375 C 18.851562 6.375 18.585938 6.523438 18.359375 6.828125 L 15.53125 9.96875 C 14.8125 10.101562 14.0625 10.132812 13.28125 10.0625 C 12.507812 10 11.625 9.75 10.625 9.3125 C 9.632812 8.882812 8.6875 8.265625 7.78125 7.453125 Z M 7.78125 7.453125 "/></g></g></g><g fill="#000000" fill-opacity="1"><g transform="translate(279.48171, 102.23793)"><g><path d="M 17.5625 -5.8125 L 16.5 -7.078125 L 4.765625 2.765625 C 4.421875 3.046875 4.226562 3.410156 4.1875 3.859375 C 4.15625 4.316406 4.285156 4.722656 4.578125 5.078125 L 4.78125 5.3125 L 4.609375 5.5 L 1 1.1875 L 1.1875 1.03125 L 1.390625 1.28125 C 1.679688 1.625 2.046875 1.816406 2.484375 1.859375 C 2.929688 1.898438 3.328125 1.78125 3.671875 1.5 L 14.609375 -7.671875 C 14.941406 -7.953125 15.125 -8.316406 15.15625 -8.765625 C 15.195312 -9.210938 15.070312 -9.609375 14.78125 -9.953125 L 14.578125 -10.203125 L 14.78125 -10.375 L 19.234375 -5.0625 C 20.234375 -3.875 20.6875 -2.660156 20.59375 -1.421875 C 20.5 -0.179688 19.921875 0.878906 18.859375 1.765625 C 17.804688 2.648438 16.625 3.085938 15.3125 3.078125 C 14 3.078125 12.953125 2.613281 12.171875 1.6875 C 12.242188 1.957031 12.257812 2.335938 12.21875 2.828125 C 12.1875 3.328125 12.109375 3.800781 11.984375 4.25 C 11.316406 6.738281 10.941406 8.3125 10.859375 8.96875 C 10.773438 9.625 10.722656 10.078125 10.703125 10.328125 C 10.679688 10.585938 10.675781 10.859375 10.6875 11.140625 C 10.707031 11.421875 10.75 11.679688 10.8125 11.921875 C 10.9375 12.460938 11.179688 12.945312 11.546875 13.375 L 11.359375 13.53125 L 10.453125 12.453125 C 9.984375 11.890625 9.644531 11.28125 9.4375 10.625 C 9.226562 9.96875 9.128906 9.425781 9.140625 9 C 9.148438 8.570312 9.179688 8.1875 9.234375 7.84375 C 9.296875 7.5 9.570312 6.441406 10.0625 4.671875 C 10.550781 2.898438 10.820312 1.878906 10.875 1.609375 C 10.925781 1.347656 10.96875 1.082031 11 0.8125 C 11.082031 0.0078125 10.945312 -0.597656 10.59375 -1.015625 L 10.796875 -1.1875 C 10.878906 -1.070312 10.988281 -0.925781 11.125 -0.75 C 11.269531 -0.582031 11.453125 -0.382812 11.671875 -0.15625 C 13.078125 1.445312 14.617188 1.898438 16.296875 1.203125 C 16.640625 1.066406 16.921875 0.898438 17.140625 0.703125 C 17.367188 0.515625 17.519531 0.394531 17.59375 0.34375 C 18.445312 -0.425781 18.957031 -1.253906 19.125 -2.140625 C 19.300781 -3.023438 19.101562 -3.847656 18.53125 -4.609375 C 18.28125 -4.941406 17.957031 -5.34375 17.5625 -5.8125 Z M 17.5625 -5.8125 "/></g></g></g><g fill="#000000" fill-opacity="1"><g transform="translate(290.14686, 114.800684)"><g><path d="M 10.078125 15.390625 L 10.1875 15.578125 L 9.96875 15.71875 L 6.875 10.828125 L 7.09375 10.6875 L 7.21875 10.890625 C 7.40625 11.191406 7.644531 11.351562 7.9375 11.375 C 8.238281 11.40625 8.472656 11.363281 8.640625 11.25 C 8.804688 11.144531 8.957031 11.007812 9.09375 10.84375 L 11.90625 7.125 L 8.1875 1.265625 L 3.5625 2.171875 C 3.351562 2.210938 3.164062 2.285156 3 2.390625 C 2.832031 2.492188 2.695312 2.679688 2.59375 2.953125 C 2.5 3.234375 2.546875 3.523438 2.734375 3.828125 L 2.859375 4.03125 L 2.640625 4.171875 L -0.125 -0.1875 L 0.09375 -0.328125 L 0.21875 -0.140625 C 0.445312 0.222656 0.785156 0.503906 1.234375 0.703125 C 1.679688 0.898438 2.203125 0.96875 2.796875 0.90625 L 17.578125 -1.578125 C 19.085938 -1.804688 20 -2.019531 20.3125 -2.21875 L 20.4375 -2.015625 L 10.21875 12.625 C 9.90625 13.113281 9.742188 13.601562 9.734375 14.09375 C 9.722656 14.582031 9.835938 15.015625 10.078125 15.390625 Z M 9.015625 1.109375 L 12.390625 6.4375 L 17.71875 -0.578125 Z M 9.015625 1.109375 "/></g></g></g><g fill="#000000" fill-opacity="1"><g transform="translate(299.441605, 129.548512)"><g><path d="M 17.578125 6.65625 C 16.890625 6.976562 16.1875 7.140625 15.46875 7.140625 C 14.125 7.160156 12.925781 6.628906 11.875 5.546875 C 11.519531 5.148438 11.265625 4.796875 11.109375 4.484375 C 10.660156 3.523438 10.441406 2.617188 10.453125 1.765625 L 10.703125 1.640625 C 10.972656 2.890625 11.585938 3.875 12.546875 4.59375 C 13.390625 5.25 14.378906 5.492188 15.515625 5.328125 C 15.867188 5.285156 16.179688 5.195312 16.453125 5.0625 C 16.734375 4.925781 16.90625 4.84375 16.96875 4.8125 C 18.039062 4.269531 18.765625 3.578125 19.140625 2.734375 C 19.523438 1.890625 19.488281 0.976562 19.03125 0 L 17.765625 -2.671875 L 3.90625 3.890625 C 3.519531 4.097656 3.25 4.410156 3.09375 4.828125 C 2.9375 5.253906 2.953125 5.664062 3.140625 6.0625 L 3.28125 6.375 L 3.0625 6.484375 L 0.65625 1.390625 L 0.875 1.28125 L 1.015625 1.578125 C 1.210938 1.984375 1.523438 2.257812 1.953125 2.40625 C 2.378906 2.5625 2.789062 2.550781 3.1875 2.375 L 16.171875 -3.78125 C 16.535156 -4 16.78125 -4.304688 16.90625 -4.703125 C 17.03125 -5.097656 17 -5.492188 16.8125 -5.890625 L 16.6875 -6.171875 L 16.90625 -6.3125 L 19.78125 -0.25 C 20.488281 1.238281 20.644531 2.597656 20.25 3.828125 C 19.851562 5.054688 18.960938 6 17.578125 6.65625 Z M 17.578125 6.65625 "/></g></g></g><g fill="#000000" fill-opacity="1"><g transform="translate(305.638759, 142.015128)"><g><path d="M 4.515625 13.296875 C 4.648438 13.722656 4.914062 14.039062 5.3125 14.25 C 5.707031 14.457031 6.113281 14.5 6.53125 14.375 L 12.875 12.34375 L 9.671875 2.34375 L 3.328125 4.375 C 2.910156 4.507812 2.601562 4.78125 2.40625 5.1875 C 2.207031 5.59375 2.175781 6.003906 2.3125 6.421875 L 2.421875 6.75 L 2.1875 6.828125 L 0.46875 1.46875 L 0.703125 1.390625 L 0.8125 1.703125 C 0.945312 2.128906 1.207031 2.445312 1.59375 2.65625 C 1.988281 2.863281 2.394531 2.90625 2.8125 2.78125 L 16.421875 -1.5625 C 16.847656 -1.707031 17.160156 -1.976562 17.359375 -2.375 C 17.554688 -2.769531 17.585938 -3.179688 17.453125 -3.609375 L 17.34375 -3.921875 L 17.59375 -4 L 19.3125 1.359375 L 19.0625 1.4375 L 18.953125 1.109375 C 18.816406 0.691406 18.554688 0.378906 18.171875 0.171875 C 17.785156 -0.0351562 17.375 -0.0820312 16.9375 0.03125 L 10.40625 2.125 L 13.609375 12.125 L 20.140625 10.03125 C 20.722656 9.832031 21.082031 9.4375 21.21875 8.84375 C 21.257812 8.550781 21.238281 8.265625 21.15625 7.984375 L 21.046875 7.671875 L 21.296875 7.59375 L 23.015625 12.953125 L 22.765625 13.03125 L 22.65625 12.71875 C 22.519531 12.289062 22.253906 11.972656 21.859375 11.765625 C 21.472656 11.554688 21.0625 11.507812 20.625 11.625 L 7.03125 15.96875 C 6.625 16.125 6.316406 16.398438 6.109375 16.796875 C 5.910156 17.191406 5.878906 17.601562 6.015625 18.03125 L 6.125 18.34375 L 5.890625 18.421875 L 4.171875 13.0625 L 4.40625 12.984375 Z M 4.515625 13.296875 "/></g></g></g><g fill="#000000" fill-opacity="1"><g transform="translate(311.629955, 161.005409)"><g><path d="M 20.359375 14.078125 L 20.3125 13.734375 C 20.21875 13.210938 19.992188 12.753906 19.640625 12.359375 C 19.296875 11.960938 18.882812 11.648438 18.40625 11.421875 L 9.46875 7.8125 L 3.40625 8.84375 C 2.96875 8.914062 2.617188 9.132812 2.359375 9.5 C 2.097656 9.863281 2.003906 10.269531 2.078125 10.71875 L 2.125 11.03125 L 1.875 11.078125 L 0.9375 5.546875 L 1.1875 5.5 L 1.25 5.84375 C 1.320312 6.28125 1.535156 6.625 1.890625 6.875 C 2.253906 7.132812 2.65625 7.238281 3.09375 7.1875 L 9.21875 6.15625 L 16.453125 -0.046875 C 16.816406 -0.378906 17.101562 -0.800781 17.3125 -1.3125 C 17.519531 -1.820312 17.582031 -2.328125 17.5 -2.828125 L 17.4375 -3.1875 L 17.703125 -3.234375 L 18.75 2.984375 L 18.484375 3.03125 L 18.4375 2.71875 C 18.375 2.332031 18.148438 2.078125 17.765625 1.953125 C 17.578125 1.878906 17.394531 1.851562 17.21875 1.875 C 17.039062 1.90625 16.867188 1.976562 16.703125 2.09375 L 10.265625 7.09375 L 18.078125 9.9375 C 18.265625 9.988281 18.441406 10 18.609375 9.96875 C 18.773438 9.945312 18.9375 9.859375 19.09375 9.703125 C 19.40625 9.453125 19.53125 9.140625 19.46875 8.765625 L 19.40625 8.46875 L 19.671875 8.421875 L 20.625 14.03125 Z M 20.359375 14.078125 "/></g></g></g><g fill="#000000" fill-opacity="1"><g transform="translate(146.51084, 271.425671)"><g><path d="M 33 2.515625 C 51.75 9.023438 65.8125 13.445312 75.1875 15.78125 C 84.5625 18.113281 92.613281 19.28125 99.34375 19.28125 C 106.070312 19.28125 113.488281 17.738281 121.59375 14.65625 L 122.25 15.703125 C 111.507812 23.097656 100.679688 26.796875 89.765625 26.796875 C 78.585938 26.796875 65.875 23.320312 51.625 16.375 C 40.613281 10.914062 33.789062 7.613281 31.15625 6.46875 C 21.738281 2.238281 13.992188 0.0820312 7.921875 0 L 7.921875 -1.3125 L 9.640625 -1.3125 C 11.921875 -1.3125 13.875 -2.101562 15.5 -3.6875 C 17.132812 -5.28125 18 -7.265625 18.09375 -9.640625 L 18.09375 -82.78125 C 18 -85.0625 17.132812 -87.015625 15.5 -88.640625 C 13.875 -90.273438 11.921875 -91.09375 9.640625 -91.09375 L 7.921875 -91.09375 L 7.921875 -92.40625 L 36.828125 -92.40625 L 36.828125 -91.09375 L 35.109375 -91.09375 C 32.828125 -91.09375 30.847656 -90.273438 29.171875 -88.640625 C 27.503906 -87.015625 26.671875 -85.0625 26.671875 -82.78125 L 26.671875 -6.59375 C 26.671875 -5.007812 26.753906 -3.800781 26.921875 -2.96875 C 27.097656 -2.132812 27.671875 -1.1875 28.640625 -0.125 C 29.609375 0.925781 31.0625 1.804688 33 2.515625 Z M 33 2.515625 "/></g></g></g><g fill="#000000" fill-opacity="1"><g transform="translate(128.233386, 192.313015)"><g><path d="M 145.21875 21.390625 C 145.75 21.390625 146.273438 21.390625 146.796875 21.390625 L 146.796875 22.703125 C 144.335938 23.054688 141.585938 23.234375 138.546875 23.234375 C 135.515625 23.234375 131.773438 22.570312 127.328125 21.25 C 122.878906 19.9375 118.851562 17.472656 115.25 13.859375 C 107.851562 6.460938 103.363281 -3.128906 101.78125 -14.921875 L 93.734375 -73.671875 L 66.265625 -11.625 C 63.804688 -6.25 62.3125 -1.757812 61.78125 1.84375 L 60.46875 1.84375 L 26.265625 -72.484375 L 20.46875 -6.859375 C 20.289062 -5.367188 20.75 -4.050781 21.84375 -2.90625 C 22.945312 -1.757812 24.160156 -1.1875 25.484375 -1.1875 L 27.59375 -1.1875 L 27.59375 0 L 1.984375 0 L 1.984375 -1.3125 L 4.09375 -1.3125 C 6.46875 -1.3125 8.554688 -2.035156 10.359375 -3.484375 C 12.160156 -4.941406 13.285156 -6.859375 13.734375 -9.234375 L 22.046875 -81.328125 C 14.296875 -96.546875 5.007812 -104.15625 -5.8125 -104.15625 C -6.78125 -104.15625 -7.789062 -104.113281 -8.84375 -104.03125 L -8.84375 -105.34375 C -6.46875 -105.957031 -4.53125 -106.265625 -3.03125 -106.265625 C -1.539062 -106.265625 0.0820312 -106.195312 1.84375 -106.0625 C 3.601562 -105.9375 5.671875 -105.519531 8.046875 -104.8125 C 10.429688 -104.113281 12.675781 -103.082031 14.78125 -101.71875 C 16.894531 -100.351562 18.742188 -98.941406 20.328125 -97.484375 C 21.910156 -96.035156 23.40625 -94.429688 24.8125 -92.671875 C 27.195312 -89.503906 29.09375 -86.46875 30.5 -83.5625 L 62.3125 -14.65625 L 97.828125 -94.265625 L 99.015625 -94.265625 L 111.296875 -16.109375 C 113.140625 -3.785156 117.117188 5.539062 123.234375 11.875 C 129.347656 18.21875 136.675781 21.390625 145.21875 21.390625 Z M 145.21875 21.390625 "/></g></g></g></svg>